<svg width="231" height="37" viewBox="0 0 231 37" fill="none" xmlns="http://www.w3.org/2000/svg">
<g clip-path="url(#clip0_737_668)">
<path d="M94.9585 2.88133C94.9585 4.43634 96.1582 5.71693 97.7731 5.71693C99.388 5.71693 100.542 4.3906 100.542 2.88133C100.542 1.37206 99.2958 0.137207 97.7731 0.137207C96.2505 0.137207 94.9585 1.32633 94.9585 2.88133ZM39.543 2.88133V9.87886C37.9742 9.19283 35.621 8.5068 33.3601 8.5068C27.2694 8.5068 23.8088 12.0742 23.3013 17.8826C23.1629 19.5748 23.1629 22.8677 23.3013 24.5142C23.8088 30.2311 27.6847 34.1187 34.0522 34.1187C40.4197 34.1187 42.4499 32.1063 43.6495 31.1916C44.3878 30.6885 44.5262 30.1854 44.5262 29.3164V2.88133C44.5262 1.46354 43.4188 0.365884 42.0346 0.365884C40.6504 0.365884 39.543 1.50927 39.543 2.88133ZM28.2845 23.9196C28.1461 22.4561 28.1922 19.712 28.2845 18.4771C28.4691 15.0927 30.1763 13.309 33.7292 13.309C37.2821 13.309 38.5279 14.1323 39.543 14.7726V27.7614C38.6201 28.4475 36.1747 29.4536 34.1445 29.4536C30.4993 29.4536 28.6075 27.5785 28.2845 24.0111M71.8879 11.1137C71.1958 11.5711 70.8728 12.0742 70.8728 13.0346V31.3745C70.8728 32.7923 72.0725 33.89 73.3644 33.89C74.6564 33.89 75.8561 32.7466 75.8561 31.3745V14.5896C76.9173 13.9493 79.1321 13.2633 81.4391 13.2633C83.7462 13.2633 86.9299 14.864 86.9299 18.5686V31.2831C86.9299 32.7009 88.0835 33.7985 89.4216 33.7985C90.7597 33.7985 91.9132 32.6551 91.9132 31.2831V18.2942C91.9132 11.9827 88.4065 8.46106 81.5776 8.46106C74.7487 8.46106 73.1799 10.0161 71.8418 11.0222M50.6168 9.9246C49.3249 10.4734 48.9558 11.4339 48.9558 12.2114C48.9558 13.6749 50.34 14.7268 52.4164 14.0865C53.7544 13.6292 55.6001 13.0803 57.538 13.0803C61.1832 13.0803 62.752 14.4524 62.752 17.6082V19.1632C60.5833 18.6601 58.9684 18.3857 56.7536 18.3857C50.1554 18.3857 47.2024 22.0902 47.2024 26.1149C47.2024 30.1397 50.3861 34.2101 56.8459 34.2101C63.3057 34.2101 65.3359 32.4722 66.6278 31.6032C67.3199 31.1458 67.5045 30.6428 67.5045 29.7738V17.6539C67.5045 11.3424 63.7671 8.59827 57.7687 8.59827C51.7704 8.59827 51.9549 9.33003 50.5707 9.97033M52.0934 25.8863C52.0934 23.6452 54.1697 22.3646 57.0305 22.3646C59.8912 22.3646 60.6756 22.6391 62.752 23.1421V28.3103C62.2906 28.6761 60.5372 29.7738 57.3073 29.7738C54.0774 29.7738 52.1395 28.356 52.1395 25.8405M3.3683 9.9246C2.07635 10.4734 1.70722 11.4339 1.70722 12.2114C1.70722 13.6749 3.09146 14.7268 5.16781 14.0865C6.5059 13.6292 8.39769 13.0803 10.2895 13.0803C13.9808 13.0803 15.5034 14.4524 15.5034 17.6082V19.1632C13.3348 18.6601 11.7199 18.3857 9.50508 18.3857C3.18374 18.3399 0.184565 21.7701 0 25.6576V26.5266C0.184565 30.8714 3.41445 34.1644 9.6435 34.1644C15.8726 34.1644 18.1335 32.4264 19.4254 31.5575C20.1175 31.1001 20.3021 30.597 20.3021 29.728V17.6082C20.3021 11.2967 16.5647 8.55253 10.5663 8.55253C4.56797 8.55253 4.7064 9.2843 3.3683 9.9246ZM4.89096 25.8863C4.89096 23.6452 6.96731 22.3646 9.82807 22.3646C12.6888 22.3646 13.4732 22.6391 15.5496 23.1421V28.3103C15.0882 28.6761 13.3348 29.7738 10.1049 29.7738C6.87503 29.7738 4.9371 28.356 4.9371 25.8405M95.2815 11.4796V31.466C95.2815 32.8838 96.4812 33.9814 97.7731 33.9814C99.0651 33.9814 100.265 32.8381 100.265 31.466V11.4796C100.265 10.0618 99.1112 8.96415 97.7731 8.96415C96.435 8.96415 95.2815 10.1075 95.2815 11.4796Z" fill="#192335"/>
<path d="M94.9585 2.88133C94.9585 4.43634 96.1582 5.71693 97.7731 5.71693C99.3419 5.71693 100.542 4.3906 100.542 2.88133C100.542 1.32633 99.2958 0.137207 97.7731 0.137207C96.112 0.137207 94.9585 1.32633 94.9585 2.88133ZM39.543 2.88133V9.87886C37.9742 9.19283 35.621 8.5068 33.3601 8.5068C27.2694 8.5068 23.8088 12.0742 23.3013 17.8826C23.1629 19.5748 23.1629 22.8677 23.3013 24.5142C23.8088 30.2311 27.6847 34.1187 34.0522 34.1187C38.6201 34.1187 42.4499 32.1063 43.6495 31.1916C44.3878 30.6885 44.5262 30.1854 44.5262 29.3164V2.88133C44.5262 1.46354 43.4188 0.365884 42.0346 0.365884C40.6965 0.365884 39.543 1.50927 39.543 2.88133ZM28.2845 23.9196C28.1461 22.4561 28.1922 19.712 28.2845 18.4771C28.4691 15.0927 30.1763 13.309 33.7292 13.309C36.1747 13.309 38.5279 14.1323 39.543 14.7726V27.7614C38.6201 28.4475 36.1747 29.4536 34.1445 29.4536C30.4993 29.4536 28.6075 27.5785 28.2845 24.0111M71.8879 11.1137C71.1958 11.5711 70.8728 12.0742 70.8728 13.0346V31.3745C70.8728 32.7923 72.0725 33.89 73.3644 33.89C74.7948 33.89 75.8561 32.7466 75.8561 31.3745V14.5896C76.9173 13.9493 79.1321 13.2633 81.4391 13.2633C84.346 13.2633 86.9299 14.864 86.9299 18.5686V31.2831C86.9299 32.7009 88.0835 33.7985 89.4216 33.7985C90.8981 33.7985 91.9132 32.6551 91.9132 31.2831V18.2942C91.9132 11.9827 88.4065 8.46106 81.5776 8.46106C76.6405 8.46106 73.1799 10.0161 71.8418 11.0222M50.6168 9.9246C49.3249 10.4734 48.9558 11.4339 48.9558 12.2114C48.9558 13.6749 50.34 14.7268 52.4164 14.0865C53.7544 13.6292 55.6001 13.0803 57.538 13.0803C61.1832 13.0803 62.752 14.4524 62.752 17.6082V19.1632C60.5833 18.6601 58.9684 18.3857 56.7536 18.3857C50.1554 18.3857 47.2024 22.0902 47.2024 26.1149C47.2024 30.6885 50.3861 34.2101 56.8459 34.2101C61.7369 34.2101 65.3359 32.4722 66.6278 31.6032C67.3199 31.1458 67.5045 30.6428 67.5045 29.7738V17.6539C67.5045 11.3424 63.7671 8.59827 57.7687 8.59827C54.908 8.59827 51.9549 9.33003 50.5707 9.97033M52.0934 25.8863C52.0934 23.6452 54.1697 22.3646 57.0305 22.3646C59.153 22.3646 60.6756 22.6391 62.752 23.1421V28.3103C62.2906 28.6761 60.5372 29.7738 57.3073 29.7738C53.9852 29.7738 52.1395 28.356 52.1395 25.8405M3.3683 9.9246C2.07635 10.4734 1.70722 11.4339 1.70722 12.2114C1.70722 13.6749 3.09146 14.7268 5.16781 14.0865C6.5059 13.6292 8.39769 13.0803 10.2895 13.0803C13.9808 13.0803 15.5034 14.4524 15.5034 17.6082V19.1632C13.3348 18.6601 11.7199 18.3857 9.50508 18.3857C3.18374 18.3399 0.184565 21.7701 0 25.6576V26.5266C0.184565 30.8714 3.41445 34.1644 9.6435 34.1644C14.5345 34.1644 18.1335 32.4264 19.4254 31.5575C20.1175 31.1001 20.3021 30.597 20.3021 29.728V17.6082C20.3021 11.2967 16.5647 8.55253 10.5663 8.55253C7.70557 8.55253 4.7064 9.2843 3.3683 9.9246ZM4.89096 25.8863C4.89096 23.6452 6.96731 22.3646 9.82807 22.3646C11.9506 22.3646 13.4732 22.6391 15.5496 23.1421V28.3103C15.0882 28.6761 13.3348 29.7738 10.1049 29.7738C6.78275 29.7738 4.9371 28.356 4.9371 25.8405M95.2815 11.4796V31.466C95.2815 32.8838 96.4812 33.9814 97.7731 33.9814C99.2035 33.9814 100.265 32.8381 100.265 31.466V11.4796C100.265 10.0618 99.1112 8.96415 97.7731 8.96415C96.3427 8.96415 95.2815 10.1075 95.2815 11.4796Z" fill="url(#paint0_linear_737_668)"/>
<path d="M141.1 12.2114C140.777 11.937 140.361 11.754 139.854 11.5711C139.346 11.3881 138.747 11.2509 138.054 11.1137C137.547 11.0223 137.132 10.9308 136.809 10.7936C136.486 10.7021 136.255 10.5649 136.024 10.4734C135.84 10.382 135.747 10.2447 135.655 10.1075C135.563 9.97034 135.563 9.78739 135.563 9.60445C135.563 9.42151 135.563 9.19283 135.655 9.00989C135.701 8.82695 135.84 8.68974 135.978 8.55254C136.163 8.41533 136.347 8.27812 136.624 8.18665C137.178 8.00371 138.147 8.00371 138.839 8.18665C139.162 8.32386 139.485 8.46107 139.808 8.59827C139.9 8.64401 139.992 8.68974 140.085 8.73548C140.361 8.87268 140.823 8.82695 141.1 8.55254C141.284 8.36959 141.377 8.14092 141.377 7.91224C141.377 7.68356 141.238 7.36341 141.007 7.18047C140.684 6.90606 140.223 6.67738 139.623 6.49444C138.562 6.17429 137.178 6.12856 136.116 6.49444C135.609 6.63165 135.194 6.86032 134.825 7.13474C134.455 7.40915 134.179 7.77503 133.948 8.23239C133.763 8.64401 133.625 9.1471 133.625 9.65019C133.625 10.6106 133.948 11.3424 134.64 11.8455C135.286 12.3486 136.255 12.7145 137.547 12.9431C138.054 13.0346 138.516 13.1261 138.885 13.2633C139.208 13.3548 139.485 13.492 139.669 13.5834C139.854 13.6749 139.946 13.8121 140.038 13.9493C140.131 14.0865 140.131 14.2695 140.131 14.4524C140.131 15.0012 139.946 15.3671 139.531 15.6873C139.116 16.0074 138.516 16.1446 137.778 16.1446C137.039 16.1446 136.532 16.0532 136.116 15.9159C135.701 15.733 135.286 15.5501 134.917 15.2757C134.778 15.1842 134.686 15.1384 134.594 15.0927C134.179 14.9555 133.856 15.0927 133.625 15.3214C133.44 15.5043 133.348 15.733 133.348 16.0074C133.348 16.2818 133.533 16.6477 133.809 16.7849C134.317 17.1051 134.871 17.3795 135.471 17.6082C136.116 17.8368 136.855 17.9283 137.731 17.9283C138.608 17.9283 138.977 17.8368 139.485 17.6539C139.992 17.471 140.454 17.2423 140.823 16.9221C141.192 16.602 141.469 16.2361 141.653 15.8245C141.838 15.4129 141.93 14.9098 141.93 14.4067C141.93 13.9036 141.838 13.492 141.7 13.1261C141.561 12.7602 141.284 12.4401 140.961 12.1656L141.1 12.2114Z" fill="#58585A"/>
<path d="M147.513 13.309L150.374 10.5649C150.559 10.3819 150.651 10.1533 150.651 9.92459C150.651 9.69592 150.559 9.46724 150.42 9.2843C150.097 8.91841 149.405 8.91841 149.082 9.2843L146.175 12.1199C145.991 12.2571 145.898 12.3486 145.852 12.3486C145.76 12.3486 145.668 12.3486 145.529 12.3943V7.08899C145.529 6.86032 145.437 6.63164 145.252 6.4487C144.883 6.08281 144.283 6.08281 143.914 6.4487C143.73 6.63164 143.638 6.86032 143.638 7.08899V16.8306C143.638 17.0593 143.73 17.288 143.914 17.4709C144.283 17.8368 144.929 17.8368 145.252 17.4709C145.437 17.288 145.529 17.0593 145.529 16.7849V14.1323C145.668 14.1323 145.76 14.1323 145.852 14.178C145.852 14.178 145.991 14.2695 146.175 14.4067L149.128 17.4252C149.313 17.6081 149.497 17.6996 149.774 17.6996C149.774 17.6996 149.774 17.6996 149.82 17.6996C150.097 17.6996 150.282 17.6081 150.466 17.4252C150.651 17.2423 150.743 17.0136 150.697 16.7392C150.697 16.5105 150.605 16.2818 150.42 16.0989L147.513 13.1718V13.309Z" fill="#58585A"/>
<path d="M152.358 9.33005C152.174 9.51299 152.081 9.74167 152.081 9.97034V16.8764C152.081 17.1508 152.174 17.3795 152.358 17.5624C152.543 17.7454 152.773 17.8368 153.004 17.8368C153.235 17.8368 153.512 17.7454 153.696 17.5624C153.881 17.3795 153.973 17.1508 153.973 16.8764V9.97034C153.973 9.74167 153.881 9.51299 153.696 9.33005C153.327 8.96416 152.727 8.96416 152.358 9.33005Z" fill="#58585A"/>
<path d="M152.22 6.58591C152.035 6.76885 151.897 7.04327 151.897 7.31768C151.897 7.59209 151.989 7.8665 152.174 8.04945C152.358 8.27812 152.635 8.36959 152.958 8.36959C153.281 8.36959 153.512 8.27812 153.742 8.04945C153.927 7.82077 154.065 7.59209 154.065 7.31768C154.065 7.04327 153.973 6.76885 153.742 6.54017C153.327 6.12856 152.635 6.12856 152.22 6.54017V6.58591Z" fill="#58585A"/>
<path d="M156.557 6.49443C156.372 6.67737 156.28 6.90605 156.28 7.13473V16.8764C156.28 17.1508 156.372 17.3795 156.557 17.5624C156.742 17.7454 156.972 17.8368 157.203 17.8368C157.434 17.8368 157.71 17.7454 157.895 17.5624C158.08 17.3795 158.172 17.1508 158.172 16.8764V7.13473C158.172 6.90605 158.08 6.67737 157.895 6.49443C157.526 6.12855 156.926 6.12855 156.557 6.49443Z" fill="#58585A"/>
<path d="M162.002 6.49443C161.633 6.12855 161.033 6.12855 160.664 6.49443C160.479 6.67737 160.387 6.90605 160.387 7.13473V16.8764C160.387 17.1508 160.479 17.3795 160.664 17.5624C160.848 17.7454 161.079 17.8368 161.31 17.8368C161.54 17.8368 161.817 17.7454 162.002 17.5624C162.186 17.3795 162.279 17.1508 162.279 16.8764V7.13473C162.279 6.90605 162.186 6.67737 162.002 6.49443Z" fill="#58585A"/>
<path d="M142.899 25.5204C142.669 24.9258 142.346 24.4227 141.884 23.9654C141.469 23.508 140.915 23.1879 140.269 22.9592C139.623 22.7305 138.931 22.5933 138.101 22.5933H135.517C135.101 22.5933 134.732 22.7305 134.502 23.0049C134.271 23.2794 134.132 23.5995 134.132 23.9654V32.7009C134.132 33.0668 134.271 33.3869 134.502 33.6613C134.732 33.9357 135.101 34.0729 135.517 34.0729H138.101C138.931 34.0729 139.669 33.9357 140.269 33.707C140.915 33.4784 141.423 33.1125 141.884 32.7009C142.299 32.2892 142.669 31.7404 142.899 31.1459C143.13 30.5513 143.268 29.911 143.315 29.225C143.315 28.9506 143.315 28.6761 143.315 28.356C143.315 28.0359 143.315 27.7614 143.315 27.487C143.315 26.801 143.13 26.1607 142.899 25.5661V25.5204ZM138.101 32.1978H135.978V24.377H138.101C138.654 24.377 139.162 24.4685 139.577 24.6057C139.992 24.7429 140.315 24.9716 140.592 25.246C140.869 25.5204 141.054 25.8405 141.192 26.2064C141.33 26.6181 141.423 27.0297 141.469 27.5328C141.469 27.7614 141.469 27.9901 141.469 28.3103C141.469 28.6304 141.469 28.8591 141.469 29.1335C141.469 29.5909 141.33 30.0482 141.192 30.4598C141.054 30.8257 140.823 31.1459 140.592 31.4203C140.315 31.6947 139.992 31.8776 139.577 32.0606C139.162 32.1978 138.7 32.2892 138.101 32.2892V32.1978Z" fill="#58585A"/>
<path d="M151.343 26.2064C151.02 25.8863 150.651 25.6119 150.19 25.4289C149.313 25.063 148.159 25.063 147.283 25.4289C146.867 25.5661 146.452 25.8405 146.129 26.115C145.806 26.4351 145.529 26.801 145.345 27.2126C145.16 27.6242 145.022 28.1273 144.976 28.6304C144.976 28.8591 144.976 29.1792 144.976 29.5451C144.976 29.911 144.976 30.2312 144.976 30.5513C144.976 31.0544 145.114 31.5575 145.299 32.0148C145.483 32.4722 145.76 32.8381 146.083 33.1582C146.406 33.4784 146.821 33.7528 147.283 33.89C147.744 34.0729 148.252 34.1644 148.851 34.1644C149.451 34.1644 149.313 34.1644 149.59 34.1644C149.82 34.1644 150.097 34.1187 150.328 34.0729C150.559 34.0729 150.789 33.9815 150.974 33.89C151.205 33.7985 151.343 33.7528 151.528 33.6613C151.712 33.5698 151.851 33.4326 151.897 33.2954C151.943 33.1582 151.989 33.021 151.989 32.8838C151.989 32.7466 151.989 32.6094 151.897 32.4722C151.851 32.335 151.758 32.2435 151.62 32.152C151.482 32.0606 151.343 32.0148 151.205 32.0148C151.02 32.0148 150.882 32.0148 150.697 32.1063C150.374 32.2435 150.005 32.335 149.728 32.3807C148.713 32.6094 147.975 32.4722 147.421 31.9691C147.052 31.649 146.867 31.1916 146.867 30.5513H151.251C151.666 30.5513 151.989 30.4141 152.174 30.1854C152.358 29.9567 152.45 29.6823 152.45 29.3622V28.9048C152.45 28.356 152.358 27.8986 152.22 27.4413C152.035 26.9839 151.805 26.618 151.482 26.2979L151.343 26.2064ZM150.513 28.8591H146.729C146.729 28.3103 146.914 27.8529 147.19 27.487C147.513 27.0754 147.975 26.8925 148.667 26.8925C149.359 26.8925 149.221 26.9382 149.451 27.0297C149.682 27.1211 149.867 27.2583 150.051 27.4413C150.19 27.6242 150.328 27.8072 150.42 28.0816C150.513 28.3103 150.513 28.5847 150.513 28.8591Z" fill="#58585A"/>
<path d="M160.018 25.2917C159.787 25.2917 159.602 25.3832 159.464 25.5204C159.326 25.6576 159.187 25.7948 159.141 25.9777L157.065 31.7862L154.896 25.8863C154.85 25.7033 154.711 25.5661 154.573 25.4747C154.435 25.3375 154.25 25.2917 154.019 25.2917C153.696 25.2917 153.42 25.4289 153.235 25.7033C153.097 25.8863 152.958 26.2064 153.143 26.618L155.542 33.021C155.911 33.9815 156.511 34.1644 156.972 34.1644C157.434 34.1644 158.08 33.9815 158.449 33.021L160.848 26.6638C160.941 26.3436 160.941 26.0235 160.756 25.7948C160.571 25.5204 160.295 25.3832 159.972 25.3832L160.018 25.2917Z" fill="#58585A"/>
<path d="M168.046 26.2064C167.723 25.8863 167.354 25.6119 166.893 25.4289C166.016 25.063 164.862 25.063 163.986 25.4289C163.571 25.5661 163.155 25.8405 162.832 26.115C162.509 26.4351 162.232 26.801 162.048 27.2126C161.863 27.6242 161.725 28.1273 161.679 28.6304C161.679 28.8591 161.679 29.1792 161.679 29.5451C161.679 29.911 161.679 30.2312 161.679 30.5513C161.679 31.0544 161.817 31.5575 162.002 32.0148C162.186 32.4722 162.463 32.8381 162.786 33.1582C163.109 33.4784 163.524 33.7528 163.986 33.89C164.447 34.0729 164.955 34.1644 165.555 34.1644C166.154 34.1644 166.016 34.1644 166.293 34.1644C166.524 34.1644 166.8 34.1187 167.031 34.0729C167.262 34.0729 167.493 33.9815 167.677 33.89C167.908 33.7985 168.046 33.7528 168.231 33.6613C168.415 33.5698 168.554 33.4326 168.6 33.2954C168.646 33.1582 168.692 33.021 168.692 32.8838C168.692 32.7466 168.692 32.6094 168.6 32.4722C168.554 32.335 168.461 32.2435 168.323 32.152C168.185 32.0606 168.046 32.0148 167.908 32.0148C167.723 32.0148 167.585 32.0148 167.4 32.1063C167.077 32.2435 166.708 32.335 166.431 32.3807C165.416 32.6094 164.678 32.4722 164.124 31.9691C163.755 31.649 163.571 31.1916 163.571 30.5513H167.954C168.369 30.5513 168.692 30.4141 168.877 30.1854C169.061 29.9567 169.154 29.6823 169.154 29.3622V28.9048C169.154 28.356 169.061 27.8986 168.923 27.4413C168.738 26.9839 168.508 26.618 168.185 26.2979L168.046 26.2064ZM167.216 28.8591H163.432C163.432 28.3103 163.617 27.8529 163.893 27.487C164.216 27.0754 164.678 26.8925 165.37 26.8925C166.062 26.8925 165.924 26.9382 166.154 27.0297C166.385 27.1211 166.57 27.2583 166.754 27.4413C166.893 27.6242 167.031 27.8072 167.123 28.0816C167.216 28.3103 167.216 28.5847 167.216 28.8591Z" fill="#58585A"/>
<path d="M171.138 22.7305C170.953 22.9135 170.861 23.1421 170.861 23.3708V33.1125C170.861 33.3869 170.953 33.6156 171.138 33.7985C171.322 33.9815 171.553 34.0729 171.784 34.0729C172.014 34.0729 172.291 33.9815 172.476 33.7985C172.66 33.6156 172.753 33.3869 172.753 33.1125V23.3708C172.753 23.1421 172.66 22.9135 172.476 22.7305C172.107 22.3646 171.507 22.3646 171.138 22.7305Z" fill="#58585A"/>
<path d="M181.889 27.1669C181.704 26.7553 181.427 26.3894 181.104 26.115C180.781 25.8405 180.366 25.6119 179.904 25.4289C179.028 25.1088 177.92 25.1088 176.998 25.4289C176.536 25.6119 176.167 25.8405 175.798 26.115C175.475 26.3894 175.198 26.7553 174.967 27.1669C174.783 27.5785 174.644 28.0358 174.598 28.5389C174.598 28.6761 174.598 28.8591 174.598 29.0878C174.598 29.2707 174.598 29.4994 174.598 29.6823C174.598 29.8653 174.598 30.0939 174.598 30.2769C174.598 30.4598 174.598 30.6428 174.598 30.8257C174.598 31.3288 174.737 31.7862 174.967 32.1978C175.152 32.6094 175.429 32.9753 175.798 33.2954C176.121 33.6156 176.536 33.8443 176.998 33.9815C177.459 34.1644 177.92 34.2101 178.428 34.2101C178.935 34.2101 179.443 34.1187 179.858 33.9815C180.32 33.7985 180.689 33.5698 181.058 33.2954C181.381 32.9753 181.658 32.6094 181.842 32.1978C182.027 31.7862 182.165 31.3288 182.212 30.8257C182.212 30.5056 182.212 30.1397 182.212 29.7281C182.212 29.3164 182.212 28.9506 182.212 28.5847C182.212 28.0816 182.073 27.6242 181.842 27.2126L181.889 27.1669ZM180.412 29.0878V30.1854C180.412 30.3684 180.412 30.5056 180.412 30.6428C180.366 31.1916 180.181 31.6032 179.812 31.9234C179.489 32.2435 179.028 32.3807 178.474 32.3807C177.92 32.3807 177.459 32.2435 177.136 31.9234C176.813 31.6032 176.582 31.1916 176.536 30.6428C176.536 30.5056 176.536 30.3684 176.536 30.1854C176.536 30.0025 176.536 29.8195 176.536 29.6366C176.536 29.4536 176.536 29.2707 176.536 29.0878C176.536 28.9048 176.536 28.7676 176.536 28.6304C176.536 28.1273 176.767 27.7157 177.09 27.3956C177.413 27.0754 177.874 26.9382 178.428 26.9382C178.982 26.9382 179.443 27.0754 179.766 27.3956C180.089 27.7157 180.274 28.1273 180.32 28.6304C180.32 28.7676 180.32 28.9048 180.32 29.0878H180.412Z" fill="#58585A"/>
<path d="M191.624 28.5847C191.532 27.5785 191.163 26.7095 190.563 26.115C189.917 25.5204 189.04 25.2002 187.979 25.2002C186.918 25.2002 187.241 25.2003 186.872 25.3375C186.503 25.4289 186.18 25.5204 185.903 25.6119C185.626 25.7033 185.349 25.8405 185.118 25.932C184.888 26.0235 184.749 26.1607 184.611 26.2064C184.472 26.2979 184.38 26.4351 184.288 26.5266C184.242 26.618 184.196 26.7553 184.196 26.8925V36.0853C184.196 36.314 184.288 36.5427 184.472 36.7256C184.657 36.9085 184.888 37 185.165 37C185.441 37 185.672 36.9085 185.811 36.7256C185.995 36.5427 186.087 36.314 186.087 36.0853V33.7985C186.272 33.8443 186.456 33.9357 186.687 33.9815C187.102 34.0729 187.472 34.1644 187.933 34.1644C189.04 34.1644 189.917 33.8443 190.563 33.2954C191.209 32.7009 191.578 31.8776 191.67 30.8257C191.67 30.6885 191.67 30.5056 191.67 30.3226C191.67 30.1397 191.67 29.911 191.67 29.7281C191.67 29.5451 191.67 29.3164 191.67 29.1335C191.67 28.9506 191.67 28.7676 191.67 28.6304L191.624 28.5847ZM187.933 26.9382C189.087 26.9382 189.64 27.487 189.733 28.7219C189.733 28.8591 189.733 28.9963 189.733 29.1792C189.733 29.3622 189.733 29.5451 189.733 29.7281C189.733 29.911 189.733 30.0939 189.733 30.2769C189.733 30.4598 189.733 30.597 189.733 30.6885C189.686 31.2373 189.502 31.6947 189.225 31.9691C188.948 32.2435 188.487 32.3807 187.841 32.3807C187.195 32.3807 187.425 32.3807 187.241 32.335C187.056 32.335 186.872 32.2435 186.687 32.1978C186.503 32.152 186.364 32.1063 186.226 32.0148C186.18 32.0148 186.087 31.9691 186.041 31.9234V27.4413C186.087 27.4413 186.18 27.3498 186.272 27.3498C186.41 27.2583 186.595 27.2126 186.779 27.1669C186.964 27.1211 187.149 27.0754 187.379 27.0297C187.564 27.0297 187.748 26.9839 187.933 26.9839V26.9382Z" fill="#58585A"/>
<path d="M201.775 25.2002C201.452 25.2002 201.129 25.2002 200.853 25.2917C200.576 25.3375 200.345 25.4289 200.114 25.5661C199.884 25.6576 199.699 25.7948 199.561 25.8863C199.468 25.932 199.422 25.9778 199.376 26.0235C198.822 25.4747 197.992 25.2002 196.931 25.2002C195.869 25.2002 195.823 25.2917 195.316 25.4289C194.808 25.6119 194.393 25.7948 194.07 26.0692C193.931 26.1607 193.839 26.2979 193.747 26.3894C193.655 26.5266 193.608 26.6638 193.608 26.8925V33.1582C193.608 33.4326 193.701 33.6613 193.885 33.8443C194.254 34.2101 194.854 34.2101 195.223 33.8443C195.408 33.6613 195.5 33.4326 195.5 33.1582V27.3498C195.5 27.3498 195.639 27.2583 195.777 27.2126C195.915 27.1669 196.054 27.1211 196.285 27.0754C196.469 27.0297 196.7 26.9839 196.977 26.9839C197.438 26.9839 197.807 27.1211 198.084 27.3498C198.361 27.5785 198.453 27.9901 198.453 28.5847V33.1582C198.453 33.4326 198.545 33.6613 198.73 33.8443C199.099 34.2101 199.699 34.2101 200.068 33.8443C200.253 33.6613 200.345 33.4326 200.345 33.1582V27.6242C200.483 27.487 200.668 27.3498 200.853 27.2126C201.083 27.0754 201.406 26.9839 201.822 26.9839C202.237 26.9839 202.698 27.1211 202.929 27.3956C203.16 27.67 203.298 28.1273 203.298 28.7676V33.204C203.298 33.4784 203.39 33.7071 203.575 33.89C203.759 34.0729 203.99 34.1644 204.221 34.1644C204.452 34.1644 204.728 34.0729 204.867 33.89C205.051 33.7071 205.144 33.4784 205.144 33.204V28.7219C205.144 27.6242 204.867 26.801 204.359 26.2064C203.852 25.6119 202.975 25.2917 201.822 25.2917L201.775 25.2002Z" fill="#58585A"/>
<path d="M213.357 26.2064C213.034 25.8863 212.665 25.6119 212.203 25.4289C211.327 25.063 210.173 25.063 209.296 25.4289C208.881 25.5661 208.466 25.8405 208.143 26.115C207.82 26.4351 207.543 26.801 207.358 27.2126C207.174 27.6242 207.035 28.1273 206.989 28.6304C206.989 28.8591 206.989 29.1792 206.989 29.5451C206.989 29.911 206.989 30.2312 206.989 30.5513C206.989 31.0544 207.128 31.5575 207.312 32.0148C207.497 32.4722 207.774 32.8381 208.097 33.1582C208.42 33.4784 208.835 33.7528 209.296 33.89C209.758 34.0729 210.265 34.1644 210.865 34.1644C211.465 34.1644 211.327 34.1644 211.603 34.1644C211.834 34.1644 212.111 34.1187 212.342 34.0729C212.572 34.0729 212.803 33.9815 212.988 33.89C213.218 33.7985 213.357 33.7528 213.541 33.6613C213.726 33.5698 213.864 33.4326 213.911 33.2954C213.957 33.1582 214.003 33.021 214.003 32.8838C214.003 32.7466 214.003 32.6094 213.911 32.4722C213.864 32.335 213.772 32.2435 213.634 32.152C213.495 32.0606 213.357 32.0148 213.218 32.0148C213.034 32.0148 212.895 32.0148 212.711 32.1063C212.388 32.2435 212.019 32.335 211.742 32.3807C210.727 32.6094 209.989 32.4722 209.435 31.9691C209.066 31.649 208.881 31.1916 208.881 30.5513H213.265C213.68 30.5513 214.003 30.4141 214.187 30.1854C214.372 29.9567 214.464 29.6823 214.464 29.3622V28.9048C214.464 28.356 214.372 27.8986 214.234 27.4413C214.049 26.9839 213.818 26.618 213.495 26.2979L213.357 26.2064ZM212.526 28.8591H208.743C208.743 28.3103 208.927 27.8529 209.204 27.487C209.527 27.0754 209.989 26.8925 210.681 26.8925C211.373 26.8925 211.234 26.9382 211.465 27.0297C211.696 27.1211 211.88 27.2583 212.065 27.4413C212.203 27.6242 212.342 27.8072 212.434 28.0816C212.526 28.3103 212.526 28.5847 212.526 28.8591Z" fill="#58585A"/>
<path d="M219.909 25.2002C219.493 25.2002 219.078 25.2002 218.755 25.2917C218.386 25.3375 218.063 25.4289 217.786 25.5204C217.509 25.6119 217.279 25.7033 217.048 25.7948C216.817 25.8863 216.679 26.0235 216.54 26.115C216.402 26.2064 216.31 26.2979 216.264 26.4351C216.171 26.5723 216.171 26.7095 216.171 26.9382V33.204C216.171 33.4784 216.264 33.7071 216.448 33.89C216.817 34.2559 217.417 34.2559 217.786 33.89C217.971 33.7071 218.063 33.4784 218.063 33.204V27.4413C218.248 27.3498 218.478 27.2583 218.755 27.2126C219.355 27.0297 220.047 26.9839 220.647 27.1669C220.878 27.2126 221.062 27.3498 221.201 27.487C221.339 27.6242 221.478 27.8072 221.57 28.0358C221.662 28.2645 221.708 28.5389 221.708 28.8134V33.2497C221.708 33.5241 221.801 33.7528 221.985 33.9357C222.17 34.1187 222.4 34.2101 222.631 34.2101C222.862 34.2101 223.139 34.1187 223.323 33.9357C223.508 33.7528 223.554 33.5241 223.554 33.2954V28.8134C223.554 27.7157 223.231 26.8467 222.631 26.2522C222.031 25.6576 221.108 25.3375 219.909 25.3375V25.2002Z" fill="#58585A"/>
<path d="M230.383 32.2892C230.244 32.152 229.968 32.0148 229.506 32.152C229.322 32.1978 229.091 32.2435 228.906 32.335C228.722 32.3807 228.537 32.4265 228.353 32.4265C228.03 32.4265 227.799 32.335 227.661 32.152C227.522 31.9691 227.43 31.6947 227.43 31.3745V27.3041H229.506C229.737 27.3041 229.921 27.2126 230.106 27.0754C230.291 26.8925 230.383 26.7095 230.383 26.4351C230.383 26.1607 230.291 25.9778 230.106 25.7948C229.921 25.6576 229.737 25.5661 229.506 25.5661H227.43V24.6057C227.43 24.3313 227.338 24.1483 227.153 23.9654C226.784 23.5995 226.184 23.5995 225.815 23.9654C225.63 24.1483 225.538 24.377 225.538 24.6057V31.3288C225.538 31.6947 225.584 32.1063 225.676 32.4265C225.769 32.7923 225.953 33.0668 226.184 33.3412C226.415 33.6156 226.692 33.7985 227.061 33.9357C227.384 34.0729 227.799 34.1644 228.26 34.1644C228.722 34.1644 228.906 34.1644 229.183 34.0729C229.46 34.0272 229.737 33.9357 229.968 33.8443C230.567 33.6156 230.66 33.204 230.66 32.9753C230.66 32.7466 230.567 32.4722 230.337 32.2892H230.383Z" fill="#58585A"/>
<path d="M117.06 34.3016C116.737 34.3016 116.46 34.0272 116.46 33.7071V0.594561C116.46 0.274413 116.737 0 117.06 0C117.383 0 117.66 0.274413 117.66 0.594561V33.7528C117.66 34.0729 117.383 34.3474 117.06 34.3474V34.3016Z" fill="#58585A"/>
</g>
<defs>
<linearGradient id="paint0_linear_737_668" x1="-46.3799" y1="28.7698" x2="137.715" y2="12.5207" gradientUnits="userSpaceOnUse">
<stop stop-color="#00B16B"/>
<stop offset="0.4" stop-color="#006DB6"/>
<stop offset="0.6" stop-color="#8E278F"/>
<stop offset="0.9" stop-color="#F04C23"/>
<stop offset="1" stop-color="#F04C23"/>
</linearGradient>
<clipPath id="clip0_737_668">
<rect width="230.706" height="37" fill="white"/>
</clipPath>
</defs>
</svg>
